<svg xmlns="http://www.w3.org/2000/svg" xmlns:svg="http://www.w3.org/2000/svg" id="svg8" width="450" height="450" version="1.1" viewBox="0 0 119.063 119.063"><metadata id="metadata5"/><g id="layer1" transform="translate(0,-177.93751)"><g id="g864" transform="translate(-1.0231427,1.6077933)"><path style="fill:#f89d08;fill-opacity:1;stroke:none;stroke-width:.27880326px;stroke-linecap:butt;stroke-linejoin:miter;stroke-opacity:1" id="path826" d="m 57.433582,227.13766 h 23.89682 c -5.84097,4.47191 -6.45959,7.93878 -3.15873,10.81147 -8.2882,6.59006 -14.72738,7.10255 -20.46794,7.12168 -9.87581,0.0329 -16.83105,-5.36429 -21.79528,-11.02583 4.07322,0.76587 7.23672,-0.0199 9.9042,-1.65174 -5.37562,-0.87511 -10.87963,0.0748 -15.5826,-10.36099 l -2.77318,-2.70285 3.82962,-10.36098 h 3.43346 l 2.50906,-4.05429 -1.05645,-2.70891 8.98512,-6.90732 3.03197,2.07341 4.20177,-1.52892 0.94842,-3.54766 c 3.82962,0.58536 7.65925,-0.19296 11.48886,0.005 l 1.05645,3.75398 4.49522,1.35143 2.3605,-2.35228 9.25512,6.7069 c -0.47307,1.31318 -1.31072,2.76453 -0.92969,3.75397 0.34109,1.38491 1.93545,2.30845 2.64642,3.4597 l 3.037294,-0.1562 c -1.24975,0.6426 -2.420774,1.38753 -3.961684,1.65175 -5.23303,-0.0927 -12.35553,-3.61028 -18.88402,-4.80509 -7.96269,-0.59303 -15.26044,3.11444 -16.50698,10.21082 -0.59806,7.56753 3.52172,11.75059 7.13101,14.11494 3.96169,2.45568 7.92336,2.01593 11.88504,0.90096 z"/><path style="fill:#7d7e80;fill-opacity:1;stroke:none;stroke-width:.27880326px;stroke-linecap:butt;stroke-linejoin:miter;stroke-opacity:1" id="path828" d="m 87.542356,228.33894 1.84879,0.90096 -3.30142,11.11177 -3.499494,-0.30033 -2.77317,4.0543 1.18851,3.07825 -8.97981,6.53193 -2.50906,-2.32747 -4.75402,1.65176 -0.7263,3.45365 -11.35682,-0.22523 -0.7263,-3.22842 -4.35785,-1.50159 -2.83921,2.32746 -8.9798,-6.83224 1.38658,-3.07826 -2.70714,-3.90414 -3.49948,0.0751 -3.56552,-10.81144 3.03729,-2.02715 -0.19808,-2.1773 1.32055,1.95206 c 1.98331,6.32111 4.4353,10.77311 7.25831,13.74543 0.31593,0.33263 0.63873,0.64357 0.96157,0.94284 15.35921,14.23742 41.83587,8.60899 47.771874,-13.4119 z"/><text style="font-style:normal;font-variant:normal;font-weight:700;font-stretch:normal;font-size:14.43718433px;line-height:1.25;font-family:'Adobe Gothic Std';-inkscape-font-specification:'Adobe Gothic Std, Bold';font-variant-ligatures:normal;font-variant-caps:normal;font-variant-numeric:normal;font-feature-settings:normal;text-align:start;letter-spacing:0;word-spacing:0;writing-mode:lr-tb;text-anchor:start;fill:#7d7e80;fill-opacity:1;stroke:none;stroke-width:.27069721" id="text832" x="15.85" y="268.598" transform="scale(0.96586694,1.0353393)" xml:space="preserve"><tspan id="tspan830" x="15.85" y="268.598" style="font-style:normal;font-variant:normal;font-weight:700;font-stretch:normal;font-size:14.43718433px;font-family:'Adobe Gothic Std';-inkscape-font-specification:'Adobe Gothic Std, Bold';font-variant-ligatures:normal;font-variant-caps:normal;font-variant-numeric:normal;font-feature-settings:normal;text-align:start;writing-mode:lr-tb;text-anchor:start;fill:#7d7e80;fill-opacity:1;stroke-width:.27069721">GET SET FOSS!</tspan></text></g></g></svg>