<svg width="65" height="67" xmlns="http://www.w3.org/2000/svg">

 <metadata id="metadata5">image/svg+xml</metadata>
 <g>
  <title>background</title>
  <rect fill="none" id="canvas_background" height="69" width="67" y="-1" x="-1"/>
 </g>
 <g>
  <title>Layer 1</title>
  <g id="layer1">
   <path fill="#f89d08" stroke-width="0.278803px" d="m31.479256,36.186861l23.89682,0c-5.84097,4.47191 -6.45958,7.93878 -3.15872,10.81147c-8.2882,6.59006 -14.72738,7.10255 -20.46795,7.12168c-9.87581,0.0329 -16.83104,-5.36429 -21.79527,-11.02583c4.07322,0.76587 7.23672,-0.0199 9.9042,-1.65174c-5.37563,-0.87511 -10.87963,0.0748 -15.58261,-10.36099l-2.77317,-2.70285l3.82961,-10.36098l3.43346,0l2.50907,-4.05429l-1.05645,-2.70891l8.98512,-6.90732l3.03197,2.07341l4.20176,-1.52892l0.94842,-3.54766c3.82963,0.58536 7.65925,-0.19296 11.48887,0.005l1.05645,3.75398l4.49522,1.35143l2.36049,-2.35228l9.25512,6.7069c-0.47307,1.31318 -1.31072,2.76453 -0.92969,3.75397c0.34109,1.38491 1.93545,2.30845 2.64642,3.4597l3.03729,-0.1562c-1.24975,0.6426 -2.42076,1.38753 -3.96168,1.65175c-5.23302,-0.0927 -12.35552,-3.61028 -18.88401,-4.80509c-7.96269,-0.59303 -15.26044,3.11444 -16.50699,10.21082c-0.59805,7.56753 3.52173,11.75059 7.13102,14.11494c3.96168,2.45568 7.92336,2.01593 11.88503,0.90096l-8.9798,-3.75295z" id="path826"/>
   <path fill="#7d7e80" stroke-width="0.278803px" d="m61.588016,37.388141l1.84878,0.90096l-3.3014,11.11177l-3.49948,-0.30033l-2.77317,4.0543l1.18851,3.07825l-8.97982,6.53193l-2.50906,-2.32747l-4.75401,1.65176l-0.72631,3.45365l-11.35681,-0.22523l-0.72631,-3.22842l-4.35785,-1.50159l-2.8392,2.32746l-8.97981,-6.83224l1.38659,-3.07826l-2.70715,-3.90414l-3.49948,0.0751l-3.56551,-10.81144l3.03729,-2.02715l-0.19809,-2.1773l1.32056,1.95206c1.98331,6.32111 4.4353,10.77311 7.25831,13.74543c0.31592,0.33263 0.63872,0.64357 0.96156,0.94284c15.35922,14.23742 41.83587,8.60899 47.77186,-13.4119l0,-0.00004z" id="path828"/>
  </g>
 </g>
</svg>
